<svg width="268" height="217" xmlns="http://www.w3.org/2000/svg" xmlns:xlink="http://www.w3.org/1999/xlink" overflow="hidden"><defs><clipPath id="clip0"><rect x="811" y="72" width="268" height="217"/></clipPath><clipPath id="clip1"><rect x="844" y="180" width="20" height="21"/></clipPath><clipPath id="clip2"><rect x="844" y="180" width="20" height="21"/></clipPath><clipPath id="clip3"><rect x="844" y="180" width="20" height="21"/></clipPath><clipPath id="clip4"><rect x="858" y="261" width="21" height="20"/></clipPath><clipPath id="clip5"><rect x="858" y="261" width="21" height="20"/></clipPath><clipPath id="clip6"><rect x="858" y="261" width="21" height="20"/></clipPath><clipPath id="clip7"><rect x="814" y="73" width="62" height="42"/></clipPath><clipPath id="clip8"><rect x="814" y="73" width="62" height="42"/></clipPath><clipPath id="clip9"><rect x="814" y="63" width="62" height="62"/></clipPath><clipPath id="clip10"><rect x="844" y="243" width="20" height="15"/></clipPath><clipPath id="clip11"><rect x="844" y="243" width="20" height="15"/></clipPath><clipPath id="clip12"><rect x="839" y="238" width="25" height="25"/></clipPath><clipPath id="clip13"><rect x="839" y="238" width="25" height="25"/></clipPath><clipPath id="clip14"><rect x="844" y="221" width="21" height="21"/></clipPath><clipPath id="clip15"><rect x="844" y="221" width="21" height="21"/></clipPath><clipPath id="clip16"><rect x="844" y="221" width="21" height="21"/></clipPath><clipPath id="clip17"><rect x="844" y="201" width="21" height="20"/></clipPath><clipPath id="clip18"><rect x="844" y="201" width="21" height="20"/></clipPath><clipPath id="clip19"><rect x="844" y="201" width="21" height="20"/></clipPath></defs><g clip-path="url(#clip0)" transform="translate(-811 -72)"><path d="M844.615 232.172 830.167 232.172 830.167 137.167 830.833 137.167 830.833 231.838 830.5 231.505 844.615 231.505ZM826.5 138.5 830.5 130.5 834.5 138.5Z" fill="#4472C4"/><path d="M822.476 80.4863 1070.48 80.4863 1070.48 286.486 822.476 286.486Z" stroke="#262261" stroke-width="1.33333" stroke-miterlimit="8" fill="#FFFFFF" fill-rule="evenodd"/><text font-family="Consolas,Consolas_MSFontService,sans-serif" font-weight="400" font-size="24" transform="translate(879.668 103)">net-<tspan font-size="24" x="52.6667" y="0">monitor:</tspan><tspan font-size="24" x="158" y="0">v</tspan><tspan font-size="24" x="171.167" y="0">1</tspan><tspan font-family="Calibri,Calibri_MSFontService,sans-serif" font-weight="700" font-size="14" x="-11.1098" y="92">Wabbit Networks </tspan><tspan font-family="Calibri,Calibri_MSFontService,sans-serif" font-size="14" x="94.3902" y="92">signature</tspan></text><g clip-path="url(#clip1)"><g clip-path="url(#clip2)"><g clip-path="url(#clip3)"><path d="M12.5793 10.4017 10.9937 9.00634 5.96195 15.2008 7.56871 16.5751Z" fill="#262261" transform="matrix(1 0 0 1.05 844 180)"/><path d="M6.0888 16.9767 5.24313 16.3002 4.77801 18.351 6.68076 17.4841Z" fill="#262261" transform="matrix(1 0 0 1.05 844 180)"/><path d="M17.4841 1.0148 19.0909 2.38901 19.9366 1.35307 18.2875 0.0211417Z" fill="#262261" transform="matrix(1 0 0 1.05 844 180)"/><path d="M14.334 10.1057 15.3277 10.9091 17.8436 7.82241C18.6892 6.8499 19.0909 5.62368 18.9006 4.60888 18.8161 4.14376 18.6047 3.74207 18.3087 3.40381L16.7019 2.00846 11.7759 8.03383 13.3827 9.42918 17.463 4.39746C17.5476 4.52431 17.611 4.6723 17.6321 4.84144 17.759 5.47569 17.4419 6.32135 16.871 6.99789L14.334 10.1057Z" fill="#262261" transform="matrix(1 0 0 1.05 844 180)"/><path d="M1.07822 16.5116C1.12051 16.4059 1.16279 16.3002 1.22622 16.1945 1.35307 15.9831 1.50106 15.814 1.69133 15.6448 2.05074 15.3066 2.51586 15.0317 3.00211 14.778 3.48837 14.5243 3.99577 14.2918 4.52431 14.0381 4.77801 13.9112 5.05285 13.7632 5.3277 13.5729 5.47569 13.4884 5.60254 13.3827 5.75053 13.2347 5.89852 13.0867 6.04651 12.9175 6.13108 12.6427 6.23679 12.389 6.21564 12.0507 6.13108 11.8182 6.04651 11.5645 5.87738 11.3742 5.72939 11.2262 5.41226 10.9514 5.11628 10.8034 4.84144 10.6554 4.29175 10.3805 3.76321 10.2114 3.27696 9.97886 2.81184 9.7463 2.41015 9.4926 2.17759 9.15433 1.94503 8.83721 1.86047 8.41438 1.92389 7.94926 1.98731 7.463 2.13531 6.99789 2.38901 6.59619 2.91755 5.79281 3.91121 5.26427 4.96829 4.96829 5.49683 4.8203 6.04651 4.71459 6.61734 4.65116 6.89218 4.60888 7.18816 4.58774 7.463 4.5666 7.73784 4.54545 8.03383 4.52431 8.32981 4.52431 7.18816 4.22833 6.00423 4.16491 4.8203 4.3129 4.22833 4.39746 3.63636 4.54545 3.06554 4.79915 2.49471 5.05285 1.96617 5.4334 1.54334 5.96195 1.33192 6.21564 1.16279 6.51163 1.03594 6.80761 0.909091 7.12474 0.824524 7.42072 0.761099 7.75899 0.697674 8.09725 0.697674 8.43552 0.739958 8.79493 0.803383 9.15433 0.930233 9.51374 1.14165 9.83087 1.35307 10.148 1.60677 10.3805 1.88161 10.592 2.15645 10.8034 2.43129 10.9514 2.70613 11.0994 3.25581 11.3742 3.8055 11.5856 4.29175 11.797 4.52431 11.9027 4.73573 12.0296 4.86258 12.1353 4.926 12.1776 4.94715 12.2199 4.94715 12.241 4.94715 12.2622 4.94715 12.241 4.94715 12.241 4.94715 12.241 4.926 12.3044 4.86258 12.3679 4.79915 12.4313 4.71459 12.4947 4.63002 12.5793 4.43975 12.7273 4.20719 12.8541 3.97463 13.0021 3.48837 13.277 2.98097 13.5518 2.47357 13.8478 1.96617 14.1649 1.45877 14.5243 1.03594 15.0106 0.824524 15.2431 0.63425 15.5391 0.5074 15.8351 0.443975 15.9831 0.38055 16.1522 0.359408 16.3214 0.317125 16.4905 0.317125 16.6385 0.295983 16.7865 0.274841 17.1036 0.274841 17.4207 0.38055 17.759 0.465116 18.0761 0.655391 18.3932 0.930233 18.6047 1.20507 18.8161 1.5222 18.9218 1.81818 18.9641 2.13531 19.0063 2.43129 19.0063 2.72727 18.9641 3.31924 18.9006 3.86892 18.7315 4.39746 18.5201 3.82664 18.6258 3.25581 18.6892 2.70613 18.6681 2.43129 18.6469 2.15645 18.6258 1.90275 18.5412 1.64905 18.4778 1.41649 18.351 1.2685 18.1818 0.951374 17.8647 0.909091 17.3573 1.0148 16.8499 1.0148 16.7653 1.05708 16.6173 1.07822 16.5116Z" fill="#262261" transform="matrix(1 0 0 1.05 844 180)"/></g></g></g><text font-family="Calibri,Calibri_MSFontService,sans-serif" font-weight="700" font-size="14" transform="translate(878.917 276)">Wabbit Networks <tspan font-weight="400" font-size="14" x="105.5" y="0">signature</tspan></text><g clip-path="url(#clip4)"><g clip-path="url(#clip5)"><g clip-path="url(#clip6)"><path d="M12.5793 10.4017 10.9937 9.00634 5.96195 15.2008 7.56871 16.5751Z" fill="#262261" transform="matrix(1.05 0 0 1 858 261)"/><path d="M6.0888 16.9767 5.24313 16.3002 4.77801 18.351 6.68076 17.4841Z" fill="#262261" transform="matrix(1.05 0 0 1 858 261)"/><path d="M17.4841 1.0148 19.0909 2.38901 19.9366 1.35307 18.2875 0.0211417Z" fill="#262261" transform="matrix(1.05 0 0 1 858 261)"/><path d="M14.334 10.1057 15.3277 10.9091 17.8436 7.82241C18.6892 6.8499 19.0909 5.62368 18.9006 4.60888 18.8161 4.14376 18.6047 3.74207 18.3087 3.40381L16.7019 2.00846 11.7759 8.03383 13.3827 9.42918 17.463 4.39746C17.5476 4.52431 17.611 4.6723 17.6321 4.84144 17.759 5.47569 17.4419 6.32135 16.871 6.99789L14.334 10.1057Z" fill="#262261" transform="matrix(1.05 0 0 1 858 261)"/><path d="M1.07822 16.5116C1.12051 16.4059 1.16279 16.3002 1.22622 16.1945 1.35307 15.9831 1.50106 15.814 1.69133 15.6448 2.05074 15.3066 2.51586 15.0317 3.00211 14.778 3.48837 14.5243 3.99577 14.2918 4.52431 14.0381 4.77801 13.9112 5.05285 13.7632 5.3277 13.5729 5.47569 13.4884 5.60254 13.3827 5.75053 13.2347 5.89852 13.0867 6.04651 12.9175 6.13108 12.6427 6.23679 12.389 6.21564 12.0507 6.13108 11.8182 6.04651 11.5645 5.87738 11.3742 5.72939 11.2262 5.41226 10.9514 5.11628 10.8034 4.84144 10.6554 4.29175 10.3805 3.76321 10.2114 3.27696 9.97886 2.81184 9.7463 2.41015 9.4926 2.17759 9.15433 1.94503 8.83721 1.86047 8.41438 1.92389 7.94926 1.98731 7.463 2.13531 6.99789 2.38901 6.59619 2.91755 5.79281 3.91121 5.26427 4.96829 4.96829 5.49683 4.8203 6.04651 4.71459 6.61734 4.65116 6.89218 4.60888 7.18816 4.58774 7.463 4.5666 7.73784 4.54545 8.03383 4.52431 8.32981 4.52431 7.18816 4.22833 6.00423 4.16491 4.8203 4.3129 4.22833 4.39746 3.63636 4.54545 3.06554 4.79915 2.49471 5.05285 1.96617 5.4334 1.54334 5.96195 1.33192 6.21564 1.16279 6.51163 1.03594 6.80761 0.909091 7.12474 0.824524 7.42072 0.761099 7.75899 0.697674 8.09725 0.697674 8.43552 0.739958 8.79493 0.803383 9.15433 0.930233 9.51374 1.14165 9.83087 1.35307 10.148 1.60677 10.3805 1.88161 10.592 2.15645 10.8034 2.43129 10.9514 2.70613 11.0994 3.25581 11.3742 3.8055 11.5856 4.29175 11.797 4.52431 11.9027 4.73573 12.0296 4.86258 12.1353 4.926 12.1776 4.94715 12.2199 4.94715 12.241 4.94715 12.2622 4.94715 12.241 4.94715 12.241 4.94715 12.241 4.926 12.3044 4.86258 12.3679 4.79915 12.4313 4.71459 12.4947 4.63002 12.5793 4.43975 12.7273 4.20719 12.8541 3.97463 13.0021 3.48837 13.277 2.98097 13.5518 2.47357 13.8478 1.96617 14.1649 1.45877 14.5243 1.03594 15.0106 0.824524 15.2431 0.63425 15.5391 0.5074 15.8351 0.443975 15.9831 0.38055 16.1522 0.359408 16.3214 0.317125 16.4905 0.317125 16.6385 0.295983 16.7865 0.274841 17.1036 0.274841 17.4207 0.38055 17.759 0.465116 18.0761 0.655391 18.3932 0.930233 18.6047 1.20507 18.8161 1.5222 18.9218 1.81818 18.9641 2.13531 19.0063 2.43129 19.0063 2.72727 18.9641 3.31924 18.9006 3.86892 18.7315 4.39746 18.5201 3.82664 18.6258 3.25581 18.6892 2.70613 18.6681 2.43129 18.6469 2.15645 18.6258 1.90275 18.5412 1.64905 18.4778 1.41649 18.351 1.2685 18.1818 0.951374 17.8647 0.909091 17.3573 1.0148 16.8499 1.0148 16.7653 1.05708 16.6173 1.07822 16.5116Z" fill="#262261" transform="matrix(1.05 0 0 1 858 261)"/></g></g></g><path d="M867.349 72.9924 880.438 82.4364C880.621 90.8864 880.793 99.3354 880.977 107.785L823.523 114.992 812.031 107.039C811.848 98.4245 812.203 88.8154 812.031 80.1995L867.349 72.9924Z" fill="#FFFFFF" fill-rule="evenodd"/><g clip-path="url(#clip7)"><g clip-path="url(#clip8)"><g clip-path="url(#clip9)"><path d="M60.7237 43.3278 60.1416 23.1513 12.3517 29.6181 12.869 50.0534 60.7237 43.3278ZM57.0376 27.4841 57.4256 40.0944 53.9335 40.6118 53.5455 28.0014 57.0376 27.4841ZM48.178 28.7128 48.566 41.3231 45.0739 41.8405 44.6859 29.2301 48.178 28.7128ZM39.3184 29.9415 39.7064 42.5518 36.2143 43.0692 35.8263 30.4588 39.3184 29.9415ZM30.4588 31.2348 30.8468 43.8452 27.3547 44.3625 26.9667 31.6875 30.4588 31.2348ZM21.5993 32.4636 21.9873 45.0739 18.4952 45.5912 18.1072 32.9809 21.5993 32.4636Z" fill="#262261" transform="matrix(1.01346 0 0 1 814 63.4118)"/><path d="M0.905358 41.9051 9.05358 47.79 8.6009 28.9715 0.323342 23.0866Z" fill="#262261" transform="matrix(1.01346 0 0 1 814 63.4118)"/><path d="M58.6543 19.5299 48.566 12.3517 1.16403 19.0125 10.929 25.9967Z" fill="#262261" transform="matrix(1.01346 0 0 1 814 63.4118)"/></g></g></g><path d="M844.334 191.183 828.167 191.183 828.167 122.167 828.833 122.167 828.833 190.849 828.5 190.516 844.334 190.516ZM824.5 123.5 828.5 115.5 832.5 123.5Z" fill="#4472C4"/><path d="M858.987 271.96 854.167 271.96 854.167 265.167 854.833 265.167 854.833 271.627 854.5 271.293 858.987 271.293ZM850.5 266.5 854.5 258.5 858.5 266.5Z" fill="#4472C4"/><path d="M844.334 251.245 828.167 251.245 828.167 122.167 828.833 122.167 828.833 250.911 828.5 250.578 844.334 250.578ZM824.5 123.5 828.5 115.5 832.5 123.5Z" fill="#4472C4"/><text font-family="Calibri,Calibri_MSFontService,sans-serif" font-weight="700" font-size="14" transform="translate(860.213 151)">layer1 (blob)<tspan font-size="14" x="-0.859863" y="22">layer2 (blob)</tspan></text><path d="M853.97 147.132 845.167 147.132 845.167 115.5 845.833 115.5 845.833 146.798 845.5 146.465 853.97 146.465ZM852.637 142.798 860.637 146.798 852.637 150.798Z" fill="#4472C4"/><path d="M853.11 169.127 845.167 169.127 845.167 115.5 845.833 115.5 845.833 168.793 845.5 168.46 853.11 168.46ZM851.777 164.793 859.777 168.793 851.777 172.793Z" fill="#4472C4"/><text font-family="Calibri,Calibri_MSFontService,sans-serif" font-weight="700" font-size="14" transform="translate(867.934 255)">SBoM<tspan font-weight="400" font-size="14" x="37.3334" y="0">Document</tspan></text><g clip-path="url(#clip10)"><g clip-path="url(#clip11)"><g clip-path="url(#clip12)"><g clip-path="url(#clip13)"><text font-family="Calibri,Calibri_MSFontService,sans-serif" font-weight="400" font-size="8" transform="matrix(1.03018 0 0 1.05123 845.241 249)">S<tspan font-size="8" x="3.01455" y="1.90253">B</tspan><tspan font-size="8" x="6.23107" y="3.80506">o</tspan><tspan font-size="7" x="7.98111" y="6.65885">M</tspan></text></g></g></g></g><text font-family="Calibri,Calibri_MSFontService,sans-serif" font-weight="700" font-size="14" transform="translate(868.195 236)">ACME Rockets <tspan font-weight="400" font-size="14" x="86.5" y="0">signature</tspan></text><g clip-path="url(#clip14)"><g clip-path="url(#clip15)"><g clip-path="url(#clip16)"><path d="M857.208 231.922 855.543 230.457 850.26 236.961 851.947 238.404Z" fill="#262261"/><path d="M850.393 238.826 849.505 238.115 849.017 240.268 851.015 239.358Z" fill="#262261"/><path d="M862.358 222.066 864.045 223.508 864.933 222.421 863.202 221.022Z" fill="#262261"/><path d="M859.051 231.611 860.094 232.455 862.736 229.214C863.624 228.192 864.045 226.905 863.846 225.839 863.757 225.351 863.535 224.929 863.224 224.574L861.537 223.109 856.365 229.436 858.052 230.901 862.336 225.617C862.425 225.751 862.492 225.906 862.514 226.084 862.647 226.749 862.314 227.637 861.715 228.348L859.051 231.611Z" fill="#262261"/><path d="M845.132 238.337C845.177 238.226 845.221 238.115 845.288 238.004 845.421 237.782 845.576 237.605 845.776 237.427 846.153 237.072 846.642 236.783 847.152 236.517 847.663 236.251 848.196 236.006 848.751 235.74 849.017 235.607 849.305 235.451 849.594 235.252 849.749 235.163 849.883 235.052 850.038 234.896 850.193 234.741 850.349 234.563 850.438 234.275 850.549 234.008 850.526 233.653 850.438 233.409 850.349 233.143 850.171 232.943 850.016 232.788 849.683 232.499 849.372 232.344 849.083 232.188 848.506 231.9 847.951 231.722 847.441 231.478 846.952 231.234 846.531 230.967 846.286 230.612 846.042 230.279 845.953 229.835 846.02 229.347 846.087 228.836 846.242 228.348 846.508 227.926 847.063 227.082 848.107 226.527 849.217 226.217 849.772 226.061 850.349 225.95 850.948 225.884 851.237 225.839 851.548 225.817 851.836 225.795 852.125 225.773 852.436 225.751 852.746 225.751 851.548 225.44 850.304 225.373 849.061 225.529 848.44 225.617 847.818 225.773 847.219 226.039 846.619 226.305 846.064 226.705 845.62 227.26 845.398 227.526 845.221 227.837 845.088 228.148 844.955 228.481 844.866 228.792 844.799 229.147 844.733 229.502 844.733 229.857 844.777 230.235 844.844 230.612 844.977 230.989 845.199 231.322 845.421 231.655 845.687 231.9 845.976 232.122 846.264 232.344 846.553 232.499 846.841 232.654 847.419 232.943 847.996 233.165 848.506 233.387 848.751 233.498 848.973 233.631 849.106 233.742 849.172 233.786 849.195 233.831 849.195 233.853 849.195 233.875 849.195 233.853 849.195 233.853 849.195 233.853 849.172 233.92 849.106 233.986 849.039 234.053 848.95 234.119 848.862 234.208 848.662 234.364 848.418 234.497 848.173 234.652 847.663 234.941 847.13 235.229 846.597 235.54 846.064 235.873 845.532 236.251 845.088 236.761 844.866 237.005 844.666 237.316 844.533 237.627 844.466 237.782 844.4 237.96 844.377 238.137 844.333 238.315 844.333 238.47 844.311 238.626 844.289 238.959 844.289 239.292 844.4 239.647 844.488 239.98 844.688 240.313 844.977 240.535 845.265 240.757 845.598 240.868 845.909 240.912 846.242 240.957 846.553 240.957 846.864 240.912 847.485 240.846 848.062 240.668 848.617 240.446 848.018 240.557 847.419 240.624 846.841 240.601 846.553 240.579 846.264 240.557 845.998 240.468 845.732 240.402 845.487 240.268 845.332 240.091 844.999 239.758 844.955 239.225 845.066 238.692 845.066 238.604 845.11 238.448 845.132 238.337Z" fill="#262261"/></g></g></g><text font-family="Calibri,Calibri_MSFontService,sans-serif" font-weight="700" font-size="14" transform="translate(868.434 215)">Docker <tspan font-weight="400" font-size="14" x="44" y="0">certified signature</tspan></text><g clip-path="url(#clip17)"><g clip-path="url(#clip18)"><g clip-path="url(#clip19)"><path d="M12.5793 10.4017 10.9937 9.00634 5.96195 15.2008 7.56871 16.5751Z" fill="#262261" transform="matrix(1.05 0 0 1 844 201)"/><path d="M6.0888 16.9767 5.24313 16.3002 4.77801 18.351 6.68076 17.4841Z" fill="#262261" transform="matrix(1.05 0 0 1 844 201)"/><path d="M17.4841 1.0148 19.0909 2.38901 19.9366 1.35307 18.2875 0.0211417Z" fill="#262261" transform="matrix(1.05 0 0 1 844 201)"/><path d="M14.334 10.1057 15.3277 10.9091 17.8436 7.82241C18.6892 6.8499 19.0909 5.62368 18.9006 4.60888 18.8161 4.14376 18.6047 3.74207 18.3087 3.40381L16.7019 2.00846 11.7759 8.03383 13.3827 9.42918 17.463 4.39746C17.5476 4.52431 17.611 4.6723 17.6321 4.84144 17.759 5.47569 17.4419 6.32135 16.871 6.99789L14.334 10.1057Z" fill="#262261" transform="matrix(1.05 0 0 1 844 201)"/><path d="M1.07822 16.5116C1.12051 16.4059 1.16279 16.3002 1.22622 16.1945 1.35307 15.9831 1.50106 15.814 1.69133 15.6448 2.05074 15.3066 2.51586 15.0317 3.00211 14.778 3.48837 14.5243 3.99577 14.2918 4.52431 14.0381 4.77801 13.9112 5.05285 13.7632 5.3277 13.5729 5.47569 13.4884 5.60254 13.3827 5.75053 13.2347 5.89852 13.0867 6.04651 12.9175 6.13108 12.6427 6.23679 12.389 6.21564 12.0507 6.13108 11.8182 6.04651 11.5645 5.87738 11.3742 5.72939 11.2262 5.41226 10.9514 5.11628 10.8034 4.84144 10.6554 4.29175 10.3805 3.76321 10.2114 3.27696 9.97886 2.81184 9.7463 2.41015 9.4926 2.17759 9.15433 1.94503 8.83721 1.86047 8.41438 1.92389 7.94926 1.98731 7.463 2.13531 6.99789 2.38901 6.59619 2.91755 5.79281 3.91121 5.26427 4.96829 4.96829 5.49683 4.8203 6.04651 4.71459 6.61734 4.65116 6.89218 4.60888 7.18816 4.58774 7.463 4.5666 7.73784 4.54545 8.03383 4.52431 8.32981 4.52431 7.18816 4.22833 6.00423 4.16491 4.8203 4.3129 4.22833 4.39746 3.63636 4.54545 3.06554 4.79915 2.49471 5.05285 1.96617 5.4334 1.54334 5.96195 1.33192 6.21564 1.16279 6.51163 1.03594 6.80761 0.909091 7.12474 0.824524 7.42072 0.761099 7.75899 0.697674 8.09725 0.697674 8.43552 0.739958 8.79493 0.803383 9.15433 0.930233 9.51374 1.14165 9.83087 1.35307 10.148 1.60677 10.3805 1.88161 10.592 2.15645 10.8034 2.43129 10.9514 2.70613 11.0994 3.25581 11.3742 3.8055 11.5856 4.29175 11.797 4.52431 11.9027 4.73573 12.0296 4.86258 12.1353 4.926 12.1776 4.94715 12.2199 4.94715 12.241 4.94715 12.2622 4.94715 12.241 4.94715 12.241 4.94715 12.241 4.926 12.3044 4.86258 12.3679 4.79915 12.4313 4.71459 12.4947 4.63002 12.5793 4.43975 12.7273 4.20719 12.8541 3.97463 13.0021 3.48837 13.277 2.98097 13.5518 2.47357 13.8478 1.96617 14.1649 1.45877 14.5243 1.03594 15.0106 0.824524 15.2431 0.63425 15.5391 0.5074 15.8351 0.443975 15.9831 0.38055 16.1522 0.359408 16.3214 0.317125 16.4905 0.317125 16.6385 0.295983 16.7865 0.274841 17.1036 0.274841 17.4207 0.38055 17.759 0.465116 18.0761 0.655391 18.3932 0.930233 18.6047 1.20507 18.8161 1.5222 18.9218 1.81818 18.9641 2.13531 19.0063 2.43129 19.0063 2.72727 18.9641 3.31924 18.9006 3.86892 18.7315 4.39746 18.5201 3.82664 18.6258 3.25581 18.6892 2.70613 18.6681 2.43129 18.6469 2.15645 18.6258 1.90275 18.5412 1.64905 18.4778 1.41649 18.351 1.2685 18.1818 0.951374 17.8647 0.909091 17.3573 1.0148 16.8499 1.0148 16.7653 1.05708 16.6173 1.07822 16.5116Z" fill="#262261" transform="matrix(1.05 0 0 1 844 201)"/></g></g></g><path d="M844.594 232.069 828.167 232.069 828.167 122.167 828.833 122.167 828.833 231.736 828.5 231.402 844.594 231.402ZM824.5 123.5 828.5 115.5 832.5 123.5Z" fill="#4472C4"/><text font-family="Calibri,Calibri_MSFontService,sans-serif" font-weight="700" font-size="14" transform="translate(859.353 130)">config (blob)</text><path d="M853.11 126.083 845.167 126.083 845.167 115.5 845.833 115.5 845.833 125.749 845.5 125.416 853.11 125.416ZM851.777 121.749 859.777 125.749 851.777 129.749Z" fill="#4472C4"/></g></svg>