<svg width="344" height="229" xmlns="http://www.w3.org/2000/svg" xmlns:xlink="http://www.w3.org/1999/xlink" overflow="hidden"><defs><clipPath id="clip0"><rect x="134" y="296" width="344" height="229"/></clipPath><clipPath id="clip1"><rect x="172" y="304" width="62" height="43"/></clipPath><clipPath id="clip2"><rect x="172" y="304" width="62" height="43"/></clipPath><clipPath id="clip3"><rect x="172" y="294" width="62" height="63"/></clipPath><clipPath id="clip4"><rect x="229" y="419" width="34" height="33"/></clipPath><clipPath id="clip5"><rect x="229" y="419" width="34" height="33"/></clipPath><clipPath id="clip6"><rect x="228" y="419" width="36" height="33"/></clipPath><clipPath id="clip7"><rect x="228" y="419" width="36" height="33"/></clipPath><clipPath id="clip8"><rect x="228" y="419" width="35" height="33"/></clipPath><clipPath id="clip9"><rect x="228" y="419" width="35" height="33"/></clipPath><clipPath id="clip10"><rect x="228" y="419" width="35" height="33"/></clipPath><clipPath id="clip11"><rect x="228" y="419" width="35" height="33"/></clipPath></defs><g clip-path="url(#clip0)" transform="translate(-134 -296)"><rect x="135" y="297" width="342" height="227" fill="#FFFFFF"/><path d="M180.475 311.493 438.475 311.493 438.475 409.493 180.475 409.493Z" stroke="#262261" stroke-width="1.33333" stroke-miterlimit="8" fill="#FFFFFF" fill-rule="evenodd"/><text font-family="Consolas,Consolas_MSFontService,sans-serif" font-weight="400" font-size="24" transform="translate(237.961 334)">net-<tspan font-size="24" x="52.6667" y="0">monitor:</tspan><tspan font-size="24" x="158" y="0">v1</tspan></text><path d="M225.349 303.992 238.438 313.436C238.621 321.886 238.793 330.335 238.977 338.785L181.524 345.992 170.031 338.039C169.848 329.424 170.203 319.815 170.031 311.199L225.349 303.992Z" fill="#FFFFFF" fill-rule="evenodd"/><g clip-path="url(#clip1)"><g clip-path="url(#clip2)"><g clip-path="url(#clip3)"><path d="M61.5412 43.9112 60.9514 23.463 12.518 30.0169 13.0423 50.7273 61.5412 43.9112ZM57.8055 27.8541 58.1987 40.6342 54.6596 41.1586 54.2664 28.3784 57.8055 27.8541ZM48.8266 29.0994 49.2199 41.8795 45.6808 42.4038 45.2875 29.6237 48.8266 29.0994ZM39.8478 30.3446 40.241 43.1247 36.7019 43.649 36.3087 30.8689 39.8478 30.3446ZM30.8689 31.6554 31.2622 44.4355 27.723 44.9598 27.3298 32.1142 30.8689 31.6554ZM21.8901 32.9006 22.2833 45.6808 18.7442 46.2051 18.351 33.4249 21.8901 32.9006Z" fill="#262261" transform="matrix(1 0 0 1.01021 172 294.184)"/><path d="M0.917548 42.4693 9.17548 48.4334 8.7167 29.3615 0.327696 23.3975Z" fill="#262261" transform="matrix(1 0 0 1.01021 172 294.184)"/><path d="M59.444 19.7928 49.2199 12.518 1.1797 19.2685 11.0761 26.3467Z" fill="#262261" transform="matrix(1 0 0 1.01021 172 294.184)"/></g></g></g><text font-family="Calibri,Calibri_MSFontService,sans-serif" font-weight="700" font-size="14" transform="translate(218.505 383)">layer1 (blob)<tspan font-size="14" x="-0.859833" y="22">layer2 (blob)</tspan></text><path d="M211.97 379.132 203.167 379.132 203.167 347.5 203.833 347.5 203.833 378.798 203.5 378.465 211.97 378.465ZM210.637 374.798 218.637 378.798 210.637 382.798Z" fill="#4472C4"/><path d="M211.11 401.127 203.167 401.127 203.167 347.5 203.833 347.5 203.833 400.793 203.5 400.46 211.11 400.46ZM209.777 396.793 217.777 400.793 209.777 404.793Z" fill="#4472C4"/><text font-family="Calibri,Calibri_MSFontService,sans-serif" font-weight="700" font-size="14" transform="translate(217.646 361)">config (blob)</text><path d="M211.11 358.083 203.167 358.083 203.167 347.5 203.833 347.5 203.833 357.749 203.5 357.416 211.11 357.416ZM209.777 353.749 217.777 357.749 209.777 361.749Z" fill="#4472C4"/><path d="M237.478 426.494 467.478 426.494 467.478 516.494 237.478 516.494Z" stroke="#262261" stroke-width="1.33333" stroke-miterlimit="8" fill="#FFFFFF" fill-rule="evenodd"/><g clip-path="url(#clip4)"><g clip-path="url(#clip5)"><g clip-path="url(#clip6)"><g clip-path="url(#clip7)"><path d="M183.097 267.726 217.161 267.726 217.161 299.661 183.097 299.661Z" fill="#FFFFFF" transform="matrix(1.03099 0 0 1 39.668 151.274)"/><g clip-path="url(#clip8)"><g clip-path="url(#clip9)"><g clip-path="url(#clip10)"><g clip-path="url(#clip11)"><path d="M19.7543 16.3346 17.2643 14.1434 9.36253 23.8711 11.8857 26.0292Z" fill="#262261" transform="matrix(1.08327 0 0 1 228.44 419.796)"/><path d="M9.56175 26.6599 8.23371 25.5975 7.5033 28.8181 10.4913 27.4567Z" fill="#262261" transform="matrix(1.08327 0 0 1 228.44 419.796)"/><path d="M27.4567 1.59362 29.98 3.75166 31.3081 2.12484 28.7184 0.0332006Z" fill="#262261" transform="matrix(1.08327 0 0 1 228.44 419.796)"/><path d="M22.5098 15.8698 24.0704 17.1315 28.0213 12.2841C29.3492 10.7569 29.98 8.83133 29.6812 7.2377 29.5485 6.50728 29.2165 5.8765 28.7516 5.34525L26.2283 3.15405 18.4927 12.6162 21.0159 14.8074 27.4236 6.90568C27.5564 7.1049 27.656 7.33728 27.6891 7.60293 27.8884 8.59895 27.3904 9.92693 26.4939 10.9894L22.5098 15.8698Z" fill="#262261" transform="matrix(1.08327 0 0 1 228.44 419.796)"/><path d="M1.69322 25.9295C1.75963 25.7635 1.82602 25.5975 1.92564 25.4316 2.12484 25.0996 2.35724 24.834 2.65603 24.5683 3.22044 24.0372 3.95086 23.6055 4.71446 23.2071 5.47805 22.8087 6.2749 22.4436 7.1049 22.0452 7.5033 21.8459 7.9349 21.6135 8.36651 21.3146 8.59895 21.182 8.79812 21.0159 9.0305 20.7835 9.26294 20.5511 9.49533 20.2854 9.62812 19.8539 9.79413 19.4555 9.76092 18.9242 9.62812 18.5591 9.49533 18.1607 9.22973 17.8618 8.99734 17.6294 8.49931 17.1979 8.03449 16.9655 7.60293 16.733 6.73967 16.3014 5.90966 16.0358 5.14608 15.6706 4.41566 15.3054 3.78486 14.907 3.41965 14.3758 3.05444 13.8778 2.92165 13.2138 3.02124 12.4834 3.12084 11.7197 3.35325 10.9894 3.75166 10.3585 4.58167 9.09693 6.1421 8.26693 7.8021 7.8021 8.63211 7.56972 9.49533 7.40371 10.3918 7.30407 10.8234 7.2377 11.2881 7.20449 11.7197 7.17133 12.1513 7.13811 12.6162 7.1049 13.081 7.1049 11.2881 6.64008 9.42895 6.54049 7.56972 6.77288 6.64008 6.90568 5.71049 7.13811 4.81407 7.53651 3.91765 7.9349 3.08764 8.53252 2.42363 9.36253 2.09163 9.76092 1.82602 10.2257 1.62682 10.6906 1.42762 11.1885 1.29482 11.6534 1.19522 12.1846 1.09562 12.7158 1.09562 13.247 1.16202 13.8114 1.26162 14.3758 1.46082 14.9402 1.79283 15.4382 2.12484 15.9362 2.52324 16.3014 2.95485 16.6335 3.38645 16.9655 3.81805 17.1979 4.24966 17.4303 5.11287 17.8618 5.97609 18.1938 6.73967 18.5258 7.1049 18.6918 7.43692 18.8911 7.63609 19.0571 7.73568 19.1235 7.76889 19.1899 7.76889 19.223 7.76889 19.2564 7.76889 19.223 7.76889 19.223 7.76889 19.223 7.73568 19.3226 7.63609 19.4223 7.53651 19.5219 7.40371 19.6214 7.27091 19.7543 6.9721 19.9867 6.60692 20.1858 6.24168 20.4183 5.47805 20.8499 4.68126 21.2815 3.88445 21.7463 3.08764 22.2443 2.29083 22.8087 1.62682 23.5724 1.29482 23.9375 0.996015 24.4023 0.796812 24.8672 0.69721 25.0996 0.597609 25.3651 0.564407 25.6308 0.498007 25.8964 0.498007 26.1288 0.464806 26.3612 0.431605 26.8592 0.431605 27.3572 0.597609 27.8884 0.730407 28.3864 1.02921 28.8844 1.46082 29.2165 1.89242 29.5485 2.39043 29.7144 2.85523 29.7809 3.35325 29.8472 3.81805 29.8472 4.28286 29.7809 5.21247 29.6812 6.07567 29.4156 6.90568 29.0836 6.0093 29.2496 5.11287 29.3492 4.24966 29.316 3.81805 29.2828 3.38645 29.2496 2.98804 29.1168 2.58964 29.0172 2.22443 28.8181 1.99203 28.5523 1.49402 28.0544 1.42762 27.2576 1.59362 26.4608 1.59362 26.3279 1.66002 26.0955 1.69322 25.9295Z" fill="#262261" transform="matrix(1.08327 0 0 1 228.44 419.796)"/></g></g></g></g></g></g></g></g><text font-family="Consolas,Consolas_MSFontService,sans-serif" font-weight="400" font-size="14" transform="translate(265.576 439)">Wabbit Networks<tspan font-size="14" x="122.667" y="0">signature</tspan><tspan font-family="Calibri,Calibri_MSFontService,sans-serif" font-weight="700" font-size="14" x="21.0436" y="21">config (blob)</tspan><tspan font-family="Calibri,Calibri_MSFontService,sans-serif" font-weight="700" font-size="14" x="20.1837" y="45">signature (blob)</tspan></text><path d="M280.472 456.868 254.167 456.868 254.167 451.5 254.833 451.5 254.833 456.535 254.5 456.201 280.472 456.201ZM279.138 452.535 287.138 456.535 279.138 460.535Z" fill="#4472C4"/><path d="M279.612 480.863 254.167 480.863 254.167 451.5 254.833 451.5 254.833 480.53 254.5 480.196 279.612 480.196ZM278.279 476.53 286.279 480.53 278.279 484.53Z" fill="#4472C4"/><text font-family="Calibri,Calibri_MSFontService,sans-serif" font-weight="700" font-size="14" transform="translate(285.829 508)">reference (manifest)</text><path d="M285.958 503.52 148.167 503.52 148.167 325.167 165.833 325.167 165.833 325.833 148.5 325.833 148.834 325.5 148.834 503.187 148.5 502.854 285.958 502.854ZM164.5 321.5 172.5 325.5 164.5 329.5Z" fill="#4472C4"/></g></svg>